<?xml version="1.0" encoding="utf-8"?>
<!-- Generator: Adobe Illustrator 20.1.0, SVG Export Plug-In . SVG Version: 6.00 Build 0)  -->
<svg version="1.1" id="Слой_2" xmlns="http://www.w3.org/2000/svg" xmlns:xlink="http://www.w3.org/1999/xlink" x="0px" y="0px"
	 viewBox="0 0 203 203" style="enable-background:new 0 0 203 203;" xml:space="preserve">
<style type="text/css">
	.st0{fill:none;stroke:#FFFFFF;stroke-width:3;stroke-miterlimit:10;}
	.st1{fill:none;stroke:#FFEA00;stroke-width:3;stroke-miterlimit:10;}
	.st2{fill:none;stroke:#FF0000;stroke-width:3;stroke-miterlimit:10;}
	.st3{fill:none;stroke:#FFEA00;stroke-width:4;stroke-miterlimit:10;}
	.st4{fill:none;stroke:#FF0000;stroke-width:4;stroke-miterlimit:10;}
</style>
<g>
	<path class="st0" d="M22.7,59.1c-11.6,14.6-18.5,33-18.5,53.1c0,47.2,38.3,85.5,85.5,85.5c47.2,0,85.5-38.3,85.5-85.5
		c0-17.8-5.4-34.3-14.7-48"/>
	<path class="st1" d="M178.3,51.9c-19.3-28.4-51.8-47-88.7-47c-6.2,0-11.5,0.4-17.5,1.4"/>
	<path class="st2" d="M13.9,52.2c14.6-18.4,35.7-31.4,59.9-35.3"/>
	<line class="st1" x1="160.3" y1="64.2" x2="89.6" y2="112.1"/>
	<line class="st2" x1="89.6" y1="112.1" x2="75.7" y2="27.8"/>
	<line class="st1" x1="178.3" y1="51.9" x2="169.5" y2="57.9"/>
	<line class="st1" x1="178.3" y1="51.9" x2="178.3" y2="51.9"/>
	<line class="st1" x1="160.3" y1="64.2" x2="169.5" y2="57.9"/>
	<line class="st2" x1="73.9" y1="16.9" x2="75.7" y2="27.8"/>
	<path class="st1" d="M73.9,16.9L72.1,6.4L73.9,16.9z"/>
	<line class="st2" x1="22.7" y1="59.1" x2="13.9" y2="52.2"/>
	<line class="st2" x1="13.9" y1="52.2" x2="13.9" y2="52.2"/>
	<line class="st2" x1="22.7" y1="59.1" x2="89.6" y2="112.1"/>
</g>
<polyline class="st3" points="31,182.2 108.5,131 166.5,182.2 200,134 "/>
<polyline class="st4" points="40,199.5 136.5,129.5 162.2,147.8 197.5,103.2 "/>
</svg>
