<?xml version="1.0" encoding="utf-8"?>
<!-- Generator: Adobe Illustrator 20.1.0, SVG Export Plug-In . SVG Version: 6.00 Build 0)  -->
<svg version="1.1" xmlns="http://www.w3.org/2000/svg" xmlns:xlink="http://www.w3.org/1999/xlink" x="0px" y="0px"
	 viewBox="0 0 510 598.7" style="enable-background:new 0 0 510 598.7;" xml:space="preserve">
<style type="text/css">
	.st0{fill:none;stroke:#FFFFFF;stroke-width:7;stroke-miterlimit:10;}
	.st1{fill:#FF0000;stroke:#FFFFFF;stroke-width:4;stroke-miterlimit:10;}
</style>
<g id="Слой_1">
	<g id="Слой_4">
	</g>
</g>
<g id="Слой_2">
	<path class="st0" d="M398.5,572"/>
	<line class="st0" x1="398.5" y1="503.5" x2="398.5" y2="540"/>
	<path class="st0" d="M398.5,426.8H409V34.3H279c0,0,0.3,2,0.2-10.5c0.3-19.5-8.5-19.5-15.2-19.5c-15.5,0-94,0-104,0
		c-5,0-13.5,0-13.5,15s0,15,0,15H4v560h394.5"/>
	<path class="st0" d="M398.5,426.8h-304c-5.4,0.1-15.5-1-15.5,27c0,23,0,4,0,23c0,26.5-14.5,26.5-14.5,26.5s-7.5,0.5-21,0
		S30,486.8,30,486.8V34.3"/>
	<path class="st0" d="M17.5,34.3"/>
	<line class="st0" x1="17.5" y1="34.3" x2="17.5" y2="594.3"/>
	<path class="st0" d="M64.5,503.3c0,0,360.7,0.2,375.5,0.2c14.8,0,18-14.7,18-14.7v-35h48.5c0,0,1.3-27-20-27c-77.5,0-77.5,0-77.5,0
		"/>
	<path class="st0" d="M458,453.8h-59.5H130.2c0,0,1.3-27-13-27"/>
	<path class="st0" d="M398.5,572c0,0-136,0-153,0s-16.7-32,0-32c21,0,153,0,153,0h45.7l25.7,13.7h6.7v3.7h-7l-26,14.7H398.5z"/>
	<polyline class="st0" points="279,34.3 279,66.7 175.8,66.7 175.8,34.3 146.5,34.3 	"/>
	<path class="st0" d="M398.5,540"/>
	<path class="st0" d="M398.5,503.5"/>
	<line class="st0" x1="398.5" y1="572" x2="398.5" y2="594.3"/>
	<path class="st0" d="M398.5,540"/>
	<path class="st0" d="M164.2,4.3c14.7,0,11.7,30,11.7,30"/>
	
		<rect x="255.7" y="107.1" transform="matrix(-1 -4.490065e-11 4.490065e-11 -1 610.3318 313.2433)" class="st0" width="99" height="99"/>
	
		<rect x="77.1" y="107.1" transform="matrix(-1 -4.489177e-11 4.489177e-11 -1 253.1296 313.2433)" class="st0" width="99" height="99"/>
	
		<rect x="255.7" y="267" transform="matrix(-1 -4.490065e-11 4.490065e-11 -1 610.3318 632.96)" class="st0" width="99" height="99"/>
	
		<rect x="77.1" y="268.9" transform="matrix(-1 -4.489177e-11 4.489177e-11 -1 253.1296 636.8988)" class="st0" width="99" height="99"/>
	
		<rect x="271.6" y="123.1" transform="matrix(-1 -4.489798e-11 4.489798e-11 -1 610.3318 313.2433)" class="st0" width="67.1" height="67.1"/>
	
		<rect x="93" y="123.1" transform="matrix(-1 -4.489798e-11 4.489798e-11 -1 253.1296 313.2433)" class="st0" width="67.1" height="67.1"/>
	
		<rect x="271.6" y="282.9" transform="matrix(-1 -4.489798e-11 4.489798e-11 -1 610.3318 632.96)" class="st0" width="67.1" height="67.1"/>
	
		<rect x="93" y="284.9" transform="matrix(-1 -4.489798e-11 4.489798e-11 -1 253.1296 636.8988)" class="st0" width="67.1" height="67.1"/>
</g>
<g id="Слой_5">
	<path class="st1" d="M65,117.1c0,0,0,0,22.8-26.7c33.5,18,39.2,41,39.2,41s20-49.7,65.2-92.7c27.8,22,0,0,27.8,22
		c-40.8,29.9-66.4,56.3-91,110.7C108.9,140.4,106,132.3,65,117.1z"/>
	<path class="st1" d="M243,118.6c0,0,0,0,22.8-26.7c33.5,18,39.2,41,39.2,41s20-49.7,65.2-92.7c27.8,22,0,0,27.8,22
		c-40.8,29.9-66.4,56.3-91,110.7C286.9,141.9,284,133.8,243,118.6z"/>
	<path class="st1" d="M243,279c0,0,0,0,22.8-26.7c33.5,18,39.2,41,39.2,41s20-49.7,65.2-92.7c27.8,22,0,0,27.8,22
		c-40.8,29.9-66.4,56.3-91,110.7C286.9,302.3,284,294.3,243,279z"/>
	<path class="st1" d="M64.4,277.1c0,0,0,0,22.8-26.7c33.5,18,39.2,41,39.2,41s20-49.7,65.3-92.7c27.8,22,0,0,27.8,22
		c-40.8,29.9-66.4,56.3-91,110.7C108.3,300.4,105.4,292.3,64.4,277.1z"/>
</g>
</svg>
