<?xml version="1.0" encoding="utf-8"?>
<!-- Generator: Adobe Illustrator 20.1.0, SVG Export Plug-In . SVG Version: 6.00 Build 0)  -->
<svg version="1.1" xmlns="http://www.w3.org/2000/svg" xmlns:xlink="http://www.w3.org/1999/xlink" x="0px" y="0px"
	 viewBox="0 0 510 598.7" style="enable-background:new 0 0 510 598.7;" xml:space="preserve">
<style type="text/css">
	.st0{fill:none;stroke:#FFFFFF;stroke-width:7;stroke-miterlimit:10;}
</style>
<g id="Слой_1">
	<g id="Слой_4">
	</g>
</g>
<g id="Слой_2">
	<path class="st0" d="M112,572"/>
	<line class="st0" x1="112" y1="503.5" x2="112" y2="540"/>
	<path class="st0" d="M112,426.8h-10.5V34.3h130c0,0-0.3,2-0.2-10.5C231,4.3,239.8,4.3,246.5,4.3c15.5,0,94,0,104,0
		c5,0,13.5,0,13.5,15s0,15,0,15h142.5v560H112"/>
	<path class="st0" d="M112,426.8h304c5.4,0.1,15.5-1,15.5,27c0,23,0,4,0,23c0,26.5,14.5,26.5,14.5,26.5s7.5,0.5,21,0
		s13.5-16.5,13.5-16.5V34.3"/>
	<path class="st0" d="M493,34.3"/>
	<line class="st0" x1="493" y1="34.3" x2="493" y2="594.3"/>
	<path class="st0" d="M446,503.3c0,0-360.7,0.2-375.5,0.2s-18-14.7-18-14.7v-35H4c0,0-1.3-27,20-27c77.5,0,77.5,0,77.5,0"/>
	<path class="st0" d="M52.5,453.8H112h268.3c0,0-1.3-27,13-27"/>
	<path class="st0" d="M112,572c0,0,136,0,153,0s16.7-32,0-32c-21,0-153,0-153,0H66.3l-25.7,13.7H34v3.7h7L67,572H112z"/>
	<polyline class="st0" points="231.5,34.3 231.5,66.7 334.7,66.7 334.7,34.3 364,34.3 	"/>
	<path class="st0" d="M112,540"/>
	<path class="st0" d="M112,503.5"/>
	<line class="st0" x1="112" y1="572" x2="112" y2="594.3"/>
	<path class="st0" d="M112,540"/>
	<path class="st0" d="M346.3,4.3c-14.7,0-11.7,30-11.7,30"/>
	<rect x="155.8" y="107.1" class="st0" width="99" height="99"/>
	<rect x="334.4" y="107.1" class="st0" width="99" height="99"/>
	<rect x="155.8" y="267" class="st0" width="99" height="99"/>
	<rect x="334.4" y="268.9" class="st0" width="99" height="99"/>
	<rect x="171.8" y="123.1" class="st0" width="67.1" height="67.1"/>
	<rect x="350.4" y="123.1" class="st0" width="67.1" height="67.1"/>
	<rect x="171.8" y="282.9" class="st0" width="67.1" height="67.1"/>
	<rect x="350.4" y="284.9" class="st0" width="67.1" height="67.1"/>
</g>
</svg>
