<?xml version="1.0" encoding="utf-8"?>
<!-- Generator: Adobe Illustrator 20.1.0, SVG Export Plug-In . SVG Version: 6.00 Build 0)  -->
<svg version="1.1" id="Слой_2" xmlns="http://www.w3.org/2000/svg" xmlns:xlink="http://www.w3.org/1999/xlink" x="0px" y="0px"
	 viewBox="0 0 225.5 203" style="enable-background:new 0 0 225.5 203;" xml:space="preserve">
<style type="text/css">
	.st0{fill:none;stroke:#FFFFFF;stroke-width:3;stroke-miterlimit:10;}
	.st1{fill:none;stroke:#FFEA00;stroke-width:3;stroke-miterlimit:10;}
	.st2{fill:none;stroke:#FF0000;stroke-width:3;stroke-miterlimit:10;}
	.st3{fill:none;stroke:#FFEA00;stroke-width:4;stroke-miterlimit:10;}
	.st4{fill:none;stroke:#FF0000;stroke-width:4;stroke-miterlimit:10;}
</style>
<g>
	<path class="st0" d="M45.2,59.1c-11.6,14.6-18.5,33-18.5,53.1c0,47.2,38.3,85.5,85.5,85.5s85.5-38.3,85.5-85.5
		c0-17.8-5.4-34.3-14.7-48"/>
	<path class="st1" d="M200.8,51.9c-19.3-28.4-51.8-47-88.7-47c-6.2,0-11.5,0.4-17.5,1.4"/>
	<path class="st2" d="M36.4,52.2C51,33.8,72.1,20.8,96.3,16.9"/>
	<line class="st1" x1="182.8" y1="64.2" x2="112.1" y2="112.1"/>
	<line class="st2" x1="112.1" y1="112.1" x2="98.2" y2="27.8"/>
	<line class="st1" x1="200.8" y1="51.9" x2="192" y2="57.9"/>
	<line class="st1" x1="200.8" y1="51.9" x2="200.8" y2="51.9"/>
	<line class="st1" x1="182.8" y1="64.2" x2="192" y2="57.9"/>
	<line class="st2" x1="96.4" y1="16.9" x2="98.2" y2="27.8"/>
	<path class="st1" d="M96.4,16.9L94.6,6.4L96.4,16.9z"/>
	<line class="st2" x1="45.2" y1="59.1" x2="36.4" y2="52.2"/>
	<line class="st2" x1="36.4" y1="52.2" x2="36.4" y2="52.2"/>
	<line class="st2" x1="45.2" y1="59.1" x2="112.1" y2="112.1"/>
</g>
<polyline class="st3" points="53.5,182.2 131,131 189,182.2 222.5,134 "/>
<polyline class="st4" points="62.5,199.5 159,129.5 184.7,147.8 220,103.2 "/>
</svg>
