<?xml version="1.0" encoding="utf-8"?>
<!-- Generator: Adobe Illustrator 20.1.0, SVG Export Plug-In . SVG Version: 6.00 Build 0)  -->
<svg version="1.1" id="Слой_2" xmlns="http://www.w3.org/2000/svg" xmlns:xlink="http://www.w3.org/1999/xlink" x="0px" y="0px"
	 viewBox="0 0 232.2 232.2" style="enable-background:new 0 0 232.2 232.2;" xml:space="preserve">
<style type="text/css">
	.st0{fill:#FFEA01;stroke:#000000;stroke-width:2;stroke-miterlimit:10;}
	.st1{fill:#FF0000;stroke:#000000;stroke-width:2;stroke-miterlimit:10;}
	.st2{fill:none;stroke:#000000;stroke-width:2;stroke-miterlimit:10;}
</style>
<g>
	<path class="st0" d="M116.2,75.8c13.6,0,25.7,6.6,33.3,16.7c3.8-4,8.5-12.8,12.6-23.3c9.8-25.3,16.2-61-0.9-66.9
		c-16.9-5.8-35.6,22.9-46.1,47.8c-4.5,10.6-7.5,20.5-8.3,26.8C109.9,76.1,113,75.8,116.2,75.8z"/>
	<path class="st1" d="M106.9,76.8c0.8-6.3,3.8-16.2,8.3-26.8C103.9,25.4,82.8-4.1,66.6,4c-16.1,8.1-8.3,41.9,2.4,66.9
		C79,75.2,87.4,80.1,91.4,84C95.9,80.6,101.2,78.1,106.9,76.8z"/>
	<path class="st2" d="M149.5,92.5c5.2,6.9,8.2,15.5,8.2,24.8c0,1.7-0.1,3.3-0.3,5c5.2-0.1,13.6-1.9,22.6-5.6
		c25.4-10.4,57.6-31.8,49.6-48.7c-7.8-16.4-42.2-9.1-67.4,1.1C158.1,79.7,153.4,88.5,149.5,92.5z"/>
	<path class="st2" d="M91.4,84c-4-3.9-12.4-8.8-22.4-13.1C44,60.2,8.6,52.5,2.1,69.4c-6.4,16.6,21,36,45.3,47.4
		c10.5-5,22.3-8.9,28.5-9.5C78.3,97.9,83.8,89.7,91.4,84z"/>
	<path class="st2" d="M180,116.6c-9,3.7-17.4,5.4-22.6,5.6c-1.4,12.1-8.1,22.7-17.7,29.3c3.8,3.8,12.2,8.5,22.5,12.8
		c25.2,10.3,61.4,17.5,67.6,0.3C236.1,147,205.4,127.3,180,116.6z"/>
	<path class="st2" d="M74.8,117.2c0-3.4,0.4-6.7,1.2-9.9c-6.3,0.6-18,4.5-28.5,9.5c-24.3,11.5-52.3,32.1-44.3,47.9
		c7.9,15.7,40.2,8.7,64.9-1.6c4.1-10.2,8.8-20.2,12.7-24.5C76.9,132.4,74.8,125.1,74.8,117.2z"/>
	<path class="st2" d="M139.7,151.5c-6.7,4.6-14.8,7.3-23.5,7.3c-3,0-6-0.3-8.8-0.9c0.4,5.7,3.2,14.8,7.5,24.6
		c10.8,24.8,31.2,54.4,47.4,46.6c15.8-7.6,9.6-39.8-0.1-64.8C152,160,143.6,155.3,139.7,151.5z"/>
	<path class="st2" d="M80.7,138.6c-3.8,4.2-8.5,14.2-12.7,24.5c-10.2,25.2-17.1,61,0,67.1c17,6.1,36.1-22.9,46.9-47.8
		c-4.3-9.8-7-18.8-7.5-24.6C96.1,155.4,86.5,148.3,80.7,138.6z"/>
</g>
</svg>
