<?xml version="1.0" encoding="utf-8"?>
<!-- Generator: Adobe Illustrator 20.1.0, SVG Export Plug-In . SVG Version: 6.00 Build 0)  -->
<svg version="1.1" xmlns="http://www.w3.org/2000/svg" xmlns:xlink="http://www.w3.org/1999/xlink" x="0px" y="0px"
	 viewBox="0 0 1501.4 302" style="enable-background:new 0 0 1501.4 302;" xml:space="preserve">
<style type="text/css">
	.st0{fill:#FFFFFF;stroke:#FFEA01;stroke-width:2;stroke-miterlimit:10;}
	.st1{fill:none;stroke:#FF0000;stroke-width:2;stroke-miterlimit:10;}
	.st2{fill:#FFEA01;stroke:#000000;stroke-width:2;stroke-miterlimit:10;}
	.st3{fill:#FF0000;stroke:#000000;stroke-width:2;stroke-miterlimit:10;}
	.st4{fill:none;stroke:#000000;stroke-width:2;stroke-miterlimit:10;}
</style>
<g id="Слой_3">
	<polyline class="st0" points="682,157.5 588.9,124.8 524.9,209 477.9,116 428.9,65 397.9,9 360.9,43.4 318.9,192.2 258.9,238 
		219.9,293 118.9,51 64.9,8 0,50 	"/>
	<circle class="st0" cx="588.9" cy="124.8" r="6.3"/>
	<circle class="st0" cx="524.4" cy="209.4" r="6.3"/>
	<circle class="st0" cx="477.5" cy="117" r="6.3"/>
	<circle class="st0" cx="430.1" cy="67.8" r="6.3"/>
	<circle class="st0" cx="397.7" cy="9" r="6.3"/>
	<circle class="st0" cx="360.4" cy="43.4" r="6.3"/>
	<circle class="st0" cx="318.4" cy="192.2" r="6.3"/>
	<circle class="st0" cx="258.6" cy="237.9" r="6.3"/>
	<circle class="st0" cx="220.1" cy="292" r="6.3"/>
	<circle class="st0" cx="120.5" cy="55.3" r="6.3"/>
	<circle class="st0" cx="65.7" cy="9" r="6.3"/>
</g>
<g id="Слой_4">
	<path class="st1" d="M1501.4,66c-26.6-35-32.9-70.2-36.4-63.3c-19,37.4-5.2,130.5-34.3,167.1c-10.1,12.7-22.6-25.2-32.9-12.2
		c-23,29-22.5,169.9-40,137.5c-21-39-37.3-20.1-51-55c-12.2-31.2-1.5-25.5-14-89.2c-7.2-36.8-18.3-41-20.4-38.7
		c-6.6,7.1-3.2,43.8-12.6,45.5c-11.4,2-19.7-105.1-33-103.5c-18.2,2.2-31.9,195-52,197c-5.6,0.5-11.6-7.6-16.8-30
		c-4-17-35.7-1.3-41.2-28.8c-5-25.2-13.9-113.7-40-93.1c-15.5,12.2-12.6,29.2-18,29.8c-11.6,1.4-10.2,41.6-20,42.1
		c-9.7,0.5-16.9-4.3-24-4c-14.4,0.7-24.6,66.7-51,70c-12.7,1.6-48.7-95.5-50.4-98.4c-8.4-14.1-15,27.2-24.6,31.4
		c-21,9.4-66.9-18.4-74.2-12.6"/>
</g>
<g id="Слой_2">
	<g>
		<path class="st2" d="M750.9,116.5c13.6,0,25.7,6.6,33.3,16.7c3.8-4,8.5-12.8,12.6-23.3c9.8-25.3,16.2-61-0.9-66.9
			c-16.9-5.8-35.6,22.9-46.1,47.8c-4.5,10.6-7.5,20.5-8.3,26.8C744.5,116.9,747.7,116.5,750.9,116.5z"/>
		<path class="st3" d="M741.5,117.6c0.8-6.3,3.8-16.2,8.3-26.8c-11.3-24.7-32.4-54.1-48.6-46c-16.1,8.1-8.3,41.9,2.4,66.9
			c10.1,4.3,18.4,9.2,22.4,13.1C730.6,121.4,735.8,118.9,741.5,117.6z"/>
		<path class="st4" d="M784.2,133.2c5.2,6.9,8.2,15.5,8.2,24.8c0,1.7-0.1,3.3-0.3,5c5.2-0.1,13.6-1.9,22.6-5.6
			c25.4-10.4,57.6-31.8,49.6-48.7c-7.8-16.4-42.2-9.1-67.4,1.1C792.7,120.4,788,129.2,784.2,133.2z"/>
		<path class="st4" d="M726,124.8c-4-3.9-12.4-8.8-22.4-13.1c-24.9-10.7-60.4-18.4-66.9-1.5c-6.4,16.6,21,36,45.3,47.4
			c10.5-5,22.3-8.9,28.5-9.5C712.9,138.6,718.5,130.4,726,124.8z"/>
		<path class="st4" d="M814.6,157.4c-9,3.7-17.4,5.4-22.6,5.6c-1.4,12.1-8.1,22.7-17.7,29.3c3.8,3.8,12.2,8.5,22.5,12.8
			c25.2,10.3,61.4,17.5,67.6,0.3C870.8,187.8,840,168,814.6,157.4z"/>
		<path class="st4" d="M709.4,158c0-3.4,0.4-6.7,1.2-9.9c-6.3,0.6-18,4.5-28.5,9.5c-24.3,11.5-52.3,32.1-44.3,47.9
			c7.9,15.7,40.2,8.7,64.9-1.6c4.1-10.2,8.8-20.2,12.7-24.5C711.5,173.1,709.4,165.8,709.4,158z"/>
		<path class="st4" d="M774.4,192.2c-6.7,4.6-14.8,7.3-23.5,7.3c-3,0-6-0.3-8.8-0.9c0.4,5.7,3.2,14.8,7.5,24.6
			c10.8,24.8,31.2,54.4,47.4,46.6c15.8-7.6,9.6-39.8-0.1-64.8C786.6,200.8,778.2,196,774.4,192.2z"/>
		<path class="st4" d="M715.3,179.4c-3.8,4.2-8.5,14.2-12.7,24.5c-10.2,25.2-17.1,61,0,67.1c17,6.1,36.1-22.9,46.9-47.8
			c-4.3-9.8-7-18.8-7.5-24.6C730.7,196.1,721.1,189,715.3,179.4z"/>
	</g>
</g>
</svg>
